# xmcd
#
# Track frame offsets:
#	150
#	14435
#	28495
#	45485
#	61541
#	79647
#	90861
#	114421
#	130234
#	145162
#	165947
#	179592
#	194723
#	211291
#	226074
#	249520
#	264112
#	276684
#	288524
#	303593
#	316619
#	327996
#
# Disc length: 4543 seconds
#
# Revision: 0
# Processed by: cddbd v1.5.2PL0 Copyright (c) Steve Scherf et al.
# Submitted via: audiograbber 1.83.01
#
DISCID=2f11bd16
DTITLE=Various Artist - Random Acts Of Country Volume 2 CD 1
DYEAR=2014
DGENRE=Country
TTITLE0=Kenny Chesney - How Forever Feels
TTITLE1=Miranda Lambert  - Kerosene
TTITLE2=Carrie Underwood - Jesus, Take The Wheel
TTITLE3=Tim McGraw - Just To See You Smile
TTITLE4=Lonestar - Amazed
TTITLE5=Alan Jackson - Chattahoochee
TTITLE6=Martina McBride - Love's The Only House
TTITLE7=Lee Brice - A Woman Like You
TTITLE8=Gretchen Wilson - Here For The Party
TTITLE9=LeAnn Rimes - Commitment
TTITLE10=Adam Harvey - Genie In The Bottle
TTITLE11=Mary Chapin Carpenter - Passionate Kisses
TTITLE12=Alabama - Jukebox In My Mind
TTITLE13=Jo Dee Messina - I'm Alright
TTITLE14=John Denver - Sunshine On My Shoulders
TTITLE15=Roseanne Cash - My Baby Thinks He's A Train
TTITLE16=Roy Orbison - Crying
TTITLE17=Tammy Wynette - I Don't Wanna Play House
TTITLE18=Waylon Jennings - Luckenbach, Texas (Back To The Basics Of Love)
TTITLE19=Sawyer Brown - Six Days On The Road
TTITLE20=Don Gibson - Oh Lonesome Me
TTITLE21=Jim Reeves - Distant Drums
EXTD=
EXTT0=
EXTT1=
EXTT2=
EXTT3=
EXTT4=
EXTT5=
EXTT6=
EXTT7=
EXTT8=
EXTT9=
EXTT10=
EXTT11=
EXTT12=
EXTT13=
EXTT14=
EXTT15=
EXTT16=
EXTT17=
EXTT18=
EXTT19=
EXTT20=
EXTT21=
PLAYORDER=
